<svg width="512" height="450" viewBox="0 0 512 450" fill="none" xmlns="http://www.w3.org/2000/svg">
<path d="M320.4 212.8L270.57 312.3C264.561 324.3 247.16 323.92 241.65 311.675L184.7 185.3L154.65 257.05L56.55 257L232.95 439.2C245.61 452.27 266.31 452.27 278.98 439.2L455.38 257L343.28 257.005L320.4 212.8ZM463.2 31.86C408.84 -15.12 325.7 -6.64001 275.7 44.92L256 65.25L236.3 44.92C186.3 -6.64001 103.2 -15.12 48.81 31.86C-8.63001 81.5 -15.16 166.6 28.18 225H133.18L169.11 138.75C174.618 125.87 192.77 125.63 198.65 138.375L256.86 267.775L305.93 169.775C311.814 158.025 328.71 158.025 334.6 169.775L362.27 225.025H483.77C527.2 166.6 520.6 81.5 463.2 31.86Z" fill="#FF0000"/>
</svg>
